<svg xmlns="http://www.w3.org/2000/svg" style="display: none;" xmlns:xlink="http://www.w3.org/1999/xlink">
  <defs>
    <symbol id="icon-heart-o" viewBox="0 0 32 32">
      <path d="M22.88 1.952c-2.72 0-5.184 1.28-6.88 3.456-1.696-2.176-4.16-3.456-6.88-3.456-4.48 0-9.024 3.648-9.024 10.592 0 7.232 7.776 12.704 15.072 17.248 0.256 0.16 0.544 0.256 0.832 0.256s0.576-0.096 0.832-0.256c7.296-4.544 15.072-10.016 15.072-17.248 0-6.944-4.544-10.592-9.024-10.592zM16 26.56c-4.864-3.072-12.736-8.288-12.736-14.016 0-5.088 3.040-7.424 5.824-7.424 2.368 0 4.384 1.504 5.408 4.032 0.256 0.608 0.832 0.992 1.472 0.992s1.248-0.384 1.472-0.992c1.024-2.528 3.040-4.032 5.408-4.032 2.816 0 5.824 2.304 5.824 7.424 0.064 5.728-7.808 10.976-12.672 14.016z"></path>
    </symbol>
    <symbol id="icon-link" viewBox="0 0 32 32">
        <path d="M18.354 13.646a.5.5 0 0 0-.708 0L13.5 17.793l-1.854-1.854a.5.5 0 1 0-.708.708L12.293 19l-1.354 1.354a.5.5 0 0 0 .708.708L13 19.707l1.854 1.854a.5.5 0 0 0 .708-.708L13.707 19l4.147-4.147a.5.5 0 0 0 0-.707zm-6.528 1.914 1.354-1.354a.5.5 0 0 1 .708-.708l4.147 4.147a.5.5 0 0 1 .708.708l-1.354 1.354a.5.5 0 0 1-.708.708L12 21.707l-1.854 1.854a.5.5 0 0 1-.708-.708L11.293 21l-1.47-1.47z M10.5 8.5a3.5 3.5 0 1 1-7 0 3.5 3.5 0 0 1 7 0zM8 5.5a2.5 2.5 0 1 0 0 5 2.5 2.5 0 0 0 0-5zm8.5 11a3.5 3.5 0 1 1-7 0 3.5 3.5 0 0 1 7 0zM14 16.5a2.5 2.5 0 1 0 0 5 2.5 2.5 0 0 0 0-5z"></path>
    </symbol>
    <symbol id="icon-prev" viewBox="0 0 32 32">
      <path d="M29.696 13.696h-14.688l4.576-4.576c0.864-0.864 0.864-2.336 0-3.232-0.864-0.864-2.336-0.864-3.232 0l-8.448 8.48c-0.864 0.864-0.864 2.336 0 3.232l8.448 8.448c0.448 0.448 1.056 0.672 1.632 0.672s1.184-0.224 1.632-0.672c0.864-0.864 0.864-2.336 0-3.232l-4.608-4.576h14.688c1.248 0 2.304-1.024 2.304-2.304s-1.024-2.24-2.304-2.24z"></path>
      <path d="M2.304 5.248c-1.248 0-2.304 1.024-2.304 2.304v16.928c0 1.248 1.024 2.304 2.304 2.304s2.304-1.024 2.304-2.304v-16.928c-0.064-1.28-1.056-2.304-2.304-2.304z"></path>
    </symbol>
    <symbol id="icon-next" viewBox="0 0 32 32">
      <path d="M2.304 18.304h14.688l-4.608 4.576c-0.864 0.864-0.864 2.336 0 3.232 0.864 0.864 2.336 0.864 3.232 0l8.448-8.48c0.864-0.864 0.864-2.336 0-3.232l-8.448-8.448c-0.448-0.448-1.056-0.672-1.632-0.672s-1.184 0.224-1.632 0.672c0.864 0.864 0.864-2.336 0 3.232l4.64 4.576h-14.688c-1.248 0-2.304 0.992-2.304 2.272s1.024 2.272 2.304 2.272z"></path>
      <path d="M29.696 26.752c1.248 0 2.304-1.024 2.304-2.304v-16.928c0-1.248-1.024-2.304-2.304-2.304s-2.304 1.024-2.304 2.304v16.928c0.064 1.28 1.056 2.304 2.304 2.304z"></path>
    </symbol>
    <symbol id="icon-pause" viewBox="0 0 32 32">
      <path d="M16 0.32c-8.64 0-15.68 7.040-15.68 15.68s7.040 15.68 15.68 15.68 15.68-7.040 15.68-15.68-7.040-15.68-15.68-15.68zM16 29.216c-7.296 0-13.216-5.92-13.216-13.216s5.92-13.216 13.216-13.216 13.216 5.92 13.216 13.216-5.92 13.216-13.216 13.216z"></path>
      <path d="M12.16 22.336v0c-0.896 0-1.6-0.704-1.6-1.6v-9.472c0-0.896 0.704-1.6 1.6-1.6v0c0.896 0 1.6 0.704 1.6 1.6v9.504c0 0.864-0.704 1.568-1.6 1.568z"></path>
      <path d="M19.84 22.336v0c-0.896 0-1.6-0.704-1.6-1.6v-9.472c0-0.896 0.704-1.6 1.6-1.6v0c0.896 0 1.6 0.704 1.6 1.6v9.504c0 0.864-0.704 1.568-1.6 1.568z"></path>
    </symbol>
    <symbol id="icon-play" viewBox="0 0 32 32">
      <path d="M21.216 15.168l-7.616-5.088c-0.672-0.416-1.504 0.032-1.504 0.832v10.176c0 0.8 0.896 1.248 1.504 0.832l7.616-5.088c0.576-0.416 0.576-1.248 0-1.664z"></path>
      <path d="M16 0.32c-8.64 0-15.68 7.040-15.68 15.68s7.040 15.68 15.68 15.68 15.68-7.040 15.68-15.68-7.040-15.68-15.68-15.68zM16 29.216c-7.296 0-13.216-5.92-13.216-13.216s5.92-13.216 13.216-13.216 13.216 5.92 13.216 13.216-5.92 13.216-13.216 13.216z"></path>
    </symbol>
    <symbol id="icon-playlist" viewBox="0 0 32 32">
      <path d="M0 0h21.333v2.667h-21.333v-2.667zM0 5.333h21.333v2.667h-21.333v-2.667zM0 10.667h13.333v2.667h-13.333v-2.667zM24 5.333l8 5.333-8 5.333v-10.667z"></path>
    </symbol>
  </defs>
</svg>

